<?xml version="1.0" encoding="UTF-8" standalone="no"?>
<!-- Created with Inkscape (http://www.inkscape.org/) -->

<svg
   width="72"
   height="32"
   viewBox="0 0 72 32.000001"
   version="1.1"
   id="svg1"
   inkscape:version="1.4.1 (93de688d07, 2025-03-30)"
   sodipodi:docname="healthHud.svg"
   inkscape:export-filename="healthHud_3.png"
   inkscape:export-xdpi="192"
   inkscape:export-ydpi="192"
   xmlns:inkscape="http://www.inkscape.org/namespaces/inkscape"
   xmlns:sodipodi="http://sodipodi.sourceforge.net/DTD/sodipodi-0.dtd"
   xmlns:xlink="http://www.w3.org/1999/xlink"
   xmlns="http://www.w3.org/2000/svg"
   xmlns:svg="http://www.w3.org/2000/svg">
  <sodipodi:namedview
     id="namedview1"
     pagecolor="#505050"
     bordercolor="#ffffff"
     borderopacity="1"
     inkscape:showpageshadow="0"
     inkscape:pageopacity="0"
     inkscape:pagecheckerboard="1"
     inkscape:deskcolor="#505050"
     inkscape:document-units="px"
     showgrid="true"
     inkscape:zoom="7.3474823"
     inkscape:cx="30.418583"
     inkscape:cy="28.377067"
     inkscape:window-width="1533"
     inkscape:window-height="1122"
     inkscape:window-x="0"
     inkscape:window-y="0"
     inkscape:window-maximized="0"
     inkscape:current-layer="layer1">
    <inkscape:grid
       id="grid1"
       units="px"
       originx="0"
       originy="0"
       spacingx="1"
       spacingy="1"
       empcolor="#0099e5"
       empopacity="0.30196078"
       color="#0099e5"
       opacity="0.14901961"
       empspacing="4"
       enabled="true"
       visible="true" />
  </sodipodi:namedview>
  <defs
     id="defs1">
    <linearGradient
       id="linearGradient13"
       inkscape:collect="always">
      <stop
         style="stop-color:#000000;stop-opacity:1;"
         offset="0"
         id="stop13" />
      <stop
         style="stop-color:#000000;stop-opacity:0;"
         offset="1"
         id="stop14" />
    </linearGradient>
    <linearGradient
       id="linearGradient11"
       inkscape:collect="always">
      <stop
         style="stop-color:#000000;stop-opacity:1;"
         offset="0"
         id="stop11" />
      <stop
         style="stop-color:#000000;stop-opacity:0;"
         offset="1"
         id="stop12" />
    </linearGradient>
    <linearGradient
       id="linearGradient9"
       inkscape:collect="always">
      <stop
         style="stop-color:#000000;stop-opacity:1;"
         offset="0"
         id="stop9" />
      <stop
         style="stop-color:#000000;stop-opacity:0;"
         offset="1"
         id="stop10" />
    </linearGradient>
    <inkscape:path-effect
       effect="bspline"
       id="path-effect9"
       is_visible="true"
       lpeversion="1.3"
       weight="33.333333"
       steps="2"
       helper_size="0"
       apply_no_weight="true"
       apply_with_weight="true"
       only_selected="false"
       uniform="false" />
    <inkscape:path-effect
       effect="bspline"
       id="path-effect2"
       is_visible="true"
       lpeversion="1.3"
       weight="33.333333"
       steps="2"
       helper_size="0"
       apply_no_weight="true"
       apply_with_weight="true"
       only_selected="false"
       uniform="false" />
    <inkscape:path-effect
       effect="bspline"
       id="path-effect1"
       is_visible="true"
       lpeversion="1.3"
       weight="33.333333"
       steps="2"
       helper_size="0"
       apply_no_weight="true"
       apply_with_weight="true"
       only_selected="false"
       uniform="false" />
    <inkscape:path-effect
       effect="bspline"
       id="path-effect2-7"
       is_visible="true"
       lpeversion="1.3"
       weight="33.333333"
       steps="2"
       helper_size="0"
       apply_no_weight="true"
       apply_with_weight="true"
       only_selected="false"
       uniform="false" />
    <inkscape:path-effect
       effect="bspline"
       id="path-effect2-9"
       is_visible="true"
       lpeversion="1.3"
       weight="33.333333"
       steps="2"
       helper_size="0"
       apply_no_weight="true"
       apply_with_weight="true"
       only_selected="false"
       uniform="false" />
    <inkscape:path-effect
       effect="bspline"
       id="path-effect2-7-3"
       is_visible="true"
       lpeversion="1.3"
       weight="33.333333"
       steps="2"
       helper_size="0"
       apply_no_weight="true"
       apply_with_weight="true"
       only_selected="false"
       uniform="false" />
    <inkscape:path-effect
       effect="bspline"
       id="path-effect2-9-6"
       is_visible="true"
       lpeversion="1.3"
       weight="33.333333"
       steps="2"
       helper_size="0"
       apply_no_weight="true"
       apply_with_weight="true"
       only_selected="false"
       uniform="false" />
    <inkscape:path-effect
       effect="bspline"
       id="path-effect2-0"
       is_visible="true"
       lpeversion="1.3"
       weight="33.333333"
       steps="2"
       helper_size="0"
       apply_no_weight="true"
       apply_with_weight="true"
       only_selected="false"
       uniform="false" />
    <linearGradient
       inkscape:collect="always"
       xlink:href="#linearGradient9"
       id="linearGradient10"
       x1="28.971562"
       y1="16.475323"
       x2="47.028397"
       y2="16.475323"
       gradientUnits="userSpaceOnUse" />
    <linearGradient
       inkscape:collect="always"
       xlink:href="#linearGradient11"
       id="linearGradient12"
       x1="48.971562"
       y1="16.475323"
       x2="67.028397"
       y2="16.475323"
       gradientUnits="userSpaceOnUse" />
    <linearGradient
       inkscape:collect="always"
       xlink:href="#linearGradient13"
       id="linearGradient14"
       x1="4.9715625"
       y1="16.475323"
       x2="23.028397"
       y2="16.475323"
       gradientUnits="userSpaceOnUse" />
  </defs>
  <g
     inkscape:label="bg"
     inkscape:groupmode="layer"
     id="layer1"
     style="display:inline">
    <path
       style="fill:#000000;fill-opacity:0.31;stroke:url(#linearGradient14);stroke-width:2;stroke-linecap:round;stroke-linejoin:round;stroke-dashoffset:2"
       d="m 14,11.333331 c 0,0 0,-0.666664 0.666668,-1.999999 0.666667,-1.333335 1.999996,-3.3333284 4,-3.6666623 2.000004,-0.3333338 4.666625,0.9999766 4.333286,4.6666993 -0.333338,3.666722 -3.666621,9.66663 -5.666621,12.999964 -2,3.333333 -2.666664,3.999997 -3.333333,3.999997 -0.666669,0 -1.333333,-0.666664 -3.333333,-3.999997 C 8.6666666,19.999999 5.3333375,14.000007 5.0000039,10.333336 4.6666702,6.6666647 7.3332925,5.3333536 9.3333232,5.666692 11.333354,6.0000304 12.666665,7.999997 13.333332,9.333332 14,10.666667 14,11.333331 14,11.333331 Z"
       id="path2"
       inkscape:path-effect="#path-effect2"
       inkscape:original-d="m 14,12 c 0,-0.666669 0,-1.333333 0,-2.0000007 1.333335,-2.0000023 2.666664,-3.9999957 4,-5.9999994 2.666672,1.3333359 5.333293,2.6666463 8,3.9999999 -3.333384,6.0000912 -6.666667,11.9999992 -10,17.9999992 -0.666667,0.666667 -1.333331,1.333331 -2,2 -0.666669,-0.666669 -1.333333,-1.333333 -2,-2 C 8.6666667,19.999999 5.3333377,14.000007 2,7.9999998 4.6666702,6.6666647 7.3332925,5.3333536 10,3.9999999 11.333354,6.0000303 12.666665,7.999997 14,9.9999993 14,10.666667 14,11.333331 14,12 Z"
       sodipodi:nodetypes="ccccccccccc" />
    <path
       style="fill:#000000;fill-opacity:0.31;stroke:url(#linearGradient12);stroke-width:2;stroke-linecap:round;stroke-linejoin:round;stroke-dashoffset:2"
       d="m 58,11.333331 c 0,0 0,-0.666664 0.666668,-1.999999 0.666667,-1.333335 1.999996,-3.3333284 4,-3.6666623 2.000004,-0.3333338 4.666625,0.9999766 4.333286,4.6666993 -0.333338,3.666722 -3.666621,9.66663 -5.666621,12.999964 -2,3.333333 -2.666664,3.999997 -3.333333,3.999997 -0.666669,0 -1.333333,-0.666664 -3.333333,-3.999997 -2,-3.333334 -5.333329,-9.333326 -5.666663,-12.999997 C 48.66667,6.6666648 51.333292,5.3333539 53.333323,5.6666922 55.333354,6.0000306 56.666665,7.999997 57.333332,9.333332 58,10.666667 58,11.333331 58,11.333331 Z"
       id="path2-5"
       inkscape:path-effect="#path-effect2-7"
       inkscape:original-d="m 58,12 c 0,-0.666669 0,-1.333333 0,-2.0000007 1.333335,-2.0000023 2.666664,-3.9999957 4,-5.9999994 2.666672,1.3333359 5.333293,2.6666463 8,3.9999999 -3.333384,6.0000912 -6.666667,11.9999992 -10,17.9999992 -0.666667,0.666667 -1.333331,1.333331 -2,2 -0.666669,-0.666669 -1.333333,-1.333333 -2,-2 -3.333333,-6 -6.666662,-11.999992 -10,-17.9999992 2.66667,-1.3333351 5.333292,-2.666646 8,-3.9999999 1.333354,2.0000307 2.666665,3.9999971 4,5.9999994 C 58,10.666667 58,11.333331 58,12 Z"
       sodipodi:nodetypes="ccccccccccc" />
    <path
       style="fill:#000000;fill-opacity:0.31;stroke:url(#linearGradient10);stroke-width:2;stroke-linecap:round;stroke-linejoin:round;stroke-dashoffset:2"
       d="m 38,11.333331 c 0,0 0,-0.666664 0.666668,-1.999999 0.666667,-1.333335 1.999996,-3.3333283 4,-3.6666622 2.000004,-0.3333339 4.666625,0.9999765 4.333286,4.6666992 -0.333338,3.666722 -3.666621,9.66663 -5.666621,12.999964 -2,3.333333 -2.666664,3.999997 -3.333333,3.999997 -0.666669,0 -1.333333,-0.666664 -3.333333,-3.999997 -2,-3.333334 -5.333329,-9.333326 -5.666663,-12.999997 C 28.66667,6.6666648 31.333292,5.3333538 33.333323,5.6666921 35.333354,6.0000304 36.666665,7.999997 37.333332,9.333332 38,10.666667 38,11.333331 38,11.333331 Z"
       id="path2-7"
       inkscape:path-effect="#path-effect2-9"
       inkscape:original-d="m 38,12 c 0,-0.666669 0,-1.333333 0,-2.0000007 1.333335,-2.0000023 2.666664,-3.9999956 4,-5.9999994 2.666672,1.3333359 5.333293,2.6666464 8,3.9999999 -3.333384,6.0000912 -6.666667,11.9999992 -10,17.9999992 -0.666667,0.666667 -1.333331,1.333331 -2,2 -0.666669,-0.666669 -1.333333,-1.333333 -2,-2 -3.333333,-6 -6.666662,-11.999992 -10,-17.9999992 2.66667,-1.3333351 5.333292,-2.6666462 8,-3.9999999 1.333354,2.0000304 2.666665,3.9999971 4,5.9999994 C 38,10.666667 38,11.333331 38,12 Z"
       sodipodi:nodetypes="ccccccccccc"
       transform="translate(-2)" />
    <path
       style="fill:#000000;fill-opacity:0.31;stroke:none;stroke-width:2;stroke-linecap:round;stroke-linejoin:round;stroke-dashoffset:2;stroke-opacity:1"
       d="M 16.666667,0 C 6.6666667,0 5.3333333,0 3.9999866,0.66667999 2.66664,1.33336 1.3333333,2.6666666 0.66666666,4.0000132 0,5.3333598 0,6.6666665 0,10.000053 c 0,3.333387 0,8.666613 0,11.999959 0,3.333347 0,4.666654 0.66668,6 0.66668,1.333347 1.9999869,2.666654 3.3333334,3.33332 1.3333466,0.666667 2.6666533,0.666667 12.6668396,0.666667 10.000187,0 28.66648,0 38.666494,0 10.000013,0 11.33332,0 12.666666,-0.66668 1.333347,-0.66668 2.666654,-1.999987 3.333321,-3.333334 C 72,26.666639 72,25.333333 72,21.999946 72,18.666559 72,13.333333 72,9.9999864 72,6.6666398 72,5.3333332 71.33332,3.9999866 70.66664,2.6666399 69.333333,1.3333331 67.999987,0.66666657 66.66664,0 65.333333,0 55.333146,0 45.33296,0 26.666667,0 16.666667,0 Z"
       id="path9"
       inkscape:path-effect="#path-effect9"
       inkscape:original-d="M 8,0 C 6.6666667,0 5.3333333,0 4,0 2.66664,1.33336 1.3333333,2.6666666 0,3.9999999 0,5.3333598 0,6.6666665 0,7.9999998 0,13.33344 0,18.666666 0,23.999999 c 0,1.33336 0,2.666667 0,4 1.33336,1.33336 2.6666667,2.666667 4,4 1.33336,0 2.6666667,0 4,0 18.66704,0 37.333333,0 56,0 1.33336,0 2.666667,0 4,0 1.33336,-1.33336 2.666667,-2.666667 4,-4 0,-1.33336 0,-2.666666 0,-4 0,-5.33344 0,-10.666666 0,-15.9999992 0,-1.33336 0,-2.6666666 0,-3.9999999 C 70.66664,2.6666399 69.333333,1.3333333 68,0 66.66664,0 65.333333,0 64,0 45.33296,0 26.666667,0 8,0 Z" />
  </g>
  <g
     inkscape:groupmode="layer"
     id="layer2"
     inkscape:label="heart_1"
     style="display:none">
    <path
       style="fill:#f23721;fill-opacity:1;stroke:#97030b;stroke-width:2;stroke-linecap:round;stroke-linejoin:round;stroke-dashoffset:2;stroke-opacity:1"
       d="m 14,11.333331 c 0,0 0,-0.666664 0.666668,-1.999999 0.666667,-1.333335 1.999996,-3.3333284 4,-3.6666623 2.000004,-0.3333338 4.666625,0.9999766 4.333286,4.6666993 -0.333338,3.666722 -3.666621,9.66663 -5.666621,12.999964 -2,3.333333 -2.666664,3.999997 -3.333333,3.999997 -0.666669,0 -1.333333,-0.666664 -3.333333,-3.999997 C 8.6666666,19.999999 5.3333375,14.000007 5.0000039,10.333336 4.6666702,6.6666647 7.3332925,5.3333536 9.3333232,5.666692 11.333354,6.0000304 12.666665,7.999997 13.333332,9.333332 14,10.666667 14,11.333331 14,11.333331 Z"
       id="path2-6"
       inkscape:path-effect="#path-effect2-0"
       inkscape:original-d="m 14,12 c 0,-0.666669 0,-1.333333 0,-2.0000007 1.333335,-2.0000023 2.666664,-3.9999957 4,-5.9999994 2.666672,1.3333359 5.333293,2.6666463 8,3.9999999 -3.333384,6.0000912 -6.666667,11.9999992 -10,17.9999992 -0.666667,0.666667 -1.333331,1.333331 -2,2 -0.666669,-0.666669 -1.333333,-1.333333 -2,-2 C 8.6666667,19.999999 5.3333377,14.000007 2,7.9999998 4.6666702,6.6666647 7.3332925,5.3333536 10,3.9999999 11.333354,6.0000303 12.666665,7.999997 14,9.9999993 14,10.666667 14,11.333331 14,12 Z"
       sodipodi:nodetypes="ccccccccccc" />
  </g>
  <g
     inkscape:groupmode="layer"
     id="layer3"
     inkscape:label="heart_2"
     style="display:none">
    <path
       style="fill:#f23721;fill-opacity:1;stroke:#97030b;stroke-width:2;stroke-linecap:round;stroke-linejoin:round;stroke-dashoffset:2;stroke-opacity:1"
       d="m 38,11.333331 c 0,0 0,-0.666664 0.666668,-1.999999 0.666667,-1.333335 1.999996,-3.3333283 4,-3.6666622 2.000004,-0.3333339 4.666625,0.9999765 4.333286,4.6666992 -0.333338,3.666722 -3.666621,9.66663 -5.666621,12.999964 -2,3.333333 -2.666664,3.999997 -3.333333,3.999997 -0.666669,0 -1.333333,-0.666664 -3.333333,-3.999997 -2,-3.333334 -5.333329,-9.333326 -5.666663,-12.999997 C 28.66667,6.6666648 31.333292,5.3333538 33.333323,5.6666921 35.333354,6.0000304 36.666665,7.999997 37.333332,9.333332 38,10.666667 38,11.333331 38,11.333331 Z"
       id="path2-7-8"
       inkscape:path-effect="#path-effect2-9-6"
       inkscape:original-d="m 38,12 c 0,-0.666669 0,-1.333333 0,-2.0000007 1.333335,-2.0000023 2.666664,-3.9999956 4,-5.9999994 2.666672,1.3333359 5.333293,2.6666464 8,3.9999999 -3.333384,6.0000912 -6.666667,11.9999992 -10,17.9999992 -0.666667,0.666667 -1.333331,1.333331 -2,2 -0.666669,-0.666669 -1.333333,-1.333333 -2,-2 -3.333333,-6 -6.666662,-11.999992 -10,-17.9999992 2.66667,-1.3333351 5.333292,-2.6666462 8,-3.9999999 1.333354,2.0000304 2.666665,3.9999971 4,5.9999994 C 38,10.666667 38,11.333331 38,12 Z"
       sodipodi:nodetypes="ccccccccccc"
       transform="translate(-2)" />
  </g>
  <g
     inkscape:groupmode="layer"
     id="layer4"
     inkscape:label="heart_3"
     style="display:none">
    <path
       style="fill:#f23721;fill-opacity:1;stroke:#97030b;stroke-width:2;stroke-linecap:round;stroke-linejoin:round;stroke-dashoffset:2;stroke-opacity:1"
       d="m 58,11.333331 c 0,0 0,-0.666664 0.666668,-1.999999 0.666667,-1.333335 1.999996,-3.3333284 4,-3.6666623 2.000004,-0.3333338 4.666625,0.9999766 4.333286,4.6666993 -0.333338,3.666722 -3.666621,9.66663 -5.666621,12.999964 -2,3.333333 -2.666664,3.999997 -3.333333,3.999997 -0.666669,0 -1.333333,-0.666664 -3.333333,-3.999997 -2,-3.333334 -5.333329,-9.333326 -5.666663,-12.999997 C 48.66667,6.6666648 51.333292,5.3333539 53.333323,5.6666922 55.333354,6.0000306 56.666665,7.999997 57.333332,9.333332 58,10.666667 58,11.333331 58,11.333331 Z"
       id="path2-5-1"
       inkscape:path-effect="#path-effect2-7-3"
       inkscape:original-d="m 58,12 c 0,-0.666669 0,-1.333333 0,-2.0000007 1.333335,-2.0000023 2.666664,-3.9999957 4,-5.9999994 2.666672,1.3333359 5.333293,2.6666463 8,3.9999999 -3.333384,6.0000912 -6.666667,11.9999992 -10,17.9999992 -0.666667,0.666667 -1.333331,1.333331 -2,2 -0.666669,-0.666669 -1.333333,-1.333333 -2,-2 -3.333333,-6 -6.666662,-11.999992 -10,-17.9999992 2.66667,-1.3333351 5.333292,-2.666646 8,-3.9999999 1.333354,2.0000307 2.666665,3.9999971 4,5.9999994 C 58,10.666667 58,11.333331 58,12 Z"
       sodipodi:nodetypes="ccccccccccc" />
  </g>
</svg>
